<svg xmlns="http://www.w3.org/2000/svg" viewBox="0 0 114.5 114.2"><defs><style>.cls-1{fill:#2f632f;}</style></defs><g id="Layer_2" data-name="Layer 2"><g id="Layer_1-2" data-name="Layer 1"><path class="cls-1" d="M.4,4.4c0,.2,0,.2-.2.4A3.9,3.9,0,0,0,0,6.3v.2c0,.4.2,1,.2,1.4v.2L33.7,110a5.9,5.9,0,0,0,4.4,4,3.9,3.9,0,0,0,1.5.2,6.2,6.2,0,0,0,4.4-1.8L71.2,85.2,80.5,89a6.2,6.2,0,1,0,4.7-11.5L72,72.2a5.8,5.8,0,0,0-6.6,1.5l-23,23L17.6,20.6,85.8,63.8H86l1.2.6.4.2a3.4,3.4,0,0,0,1.4.2h0a3.9,3.9,0,0,0,1.4-.2l.4-.2c.4,0,.6-.2,1-.4s.2-.2.4-.2l.8-.6c.2,0,.2-.2.4-.2h.2l19-19a5.8,5.8,0,0,0,1.6-5.9,5.9,5.9,0,0,0-4-4.4L8.3.2H8.1A2.5,2.5,0,0,0,6.9,0H6.5A3.9,3.9,0,0,0,5,.2H4.8L3.6.6c-.2,0-.2.2-.4.2L2,1.6H2a3.5,3.5,0,0,0-.8,1v.2c0,.2-.2.2-.2.4A1.7,1.7,0,0,0,.4,4.4ZM88.2,50.7,51.7,27.4l45,15Z"/></g></g></svg>