<svg xmlns="http://www.w3.org/2000/svg" viewBox="0 0 118 119.5"><defs><style>.cls-1{fill:#2f632f;}</style></defs><g id="Layer_2" data-name="Layer 2"><g id="Layer_1-2" data-name="Layer 1"><path class="cls-1" d="M118,44.2v-.4c0-.2-.2-.6-.2-.8v-.2a5.4,5.4,0,0,0-2.3-3L62.4,1.1a5.4,5.4,0,0,0-6.6,0L2.3,40.2l-.2.2c-.2,0-.2.3-.4.3l-.2.2c0,.2-.2.2-.2.4l-.2.2h0s0,.2-.3.2-.2.2-.2.4-.2.2-.2.5v.2c0,.2,0,.2-.2.4s0,.2-.2.4v1.1H0V114a5.4,5.4,0,0,0,5.5,5.5h107A5.4,5.4,0,0,0,118,114V44.2ZM11,108.5V55.7L55.6,88.4A6,6,0,0,0,59,89.5a5.5,5.5,0,0,0,3.6-1.3L94.1,61.6A5.2,5.2,0,0,0,96,57.4V47.8a5.5,5.5,0,0,0-5.5-5.5H42.9a5.5,5.5,0,0,0-5.5,5.5,5.5,5.5,0,0,0,5.5,5.5H85v1.5l-26.2,22L15,44.7,59,12.5l48,35.1v60.9Z"/></g></g></svg>