<?xml version="1.0" encoding="utf-8"?>
<!-- Generator: Adobe Illustrator 22.0.1, SVG Export Plug-In . SVG Version: 6.00 Build 0)  -->
<svg version="1.1" xmlns="http://www.w3.org/2000/svg" xmlns:xlink="http://www.w3.org/1999/xlink" x="0px" y="0px"
	 viewBox="0 0 79 79" style="enable-background:new 0 0 79 79;" xml:space="preserve">
<style type="text/css">
	.st0{fill:#2B354C;}
	.st1{fill:#009AB7;}
	.st2{fill:#ECECEC;}
	.st3{fill:#3F9CD6;}
	.st4{fill:#F9FAFC;}
</style>
<g id="BACKGROUND">
	<rect x="-586" y="165" class="st0" width="500" height="500"/>
</g>
<g id="OBJECTS">
	<path class="st1" d="M-467.1,400.2c0.6,0.6,0.6,1.6,0,2.2l-1.5,1.5c-0.6,0.6-1.6,0.6-2.2,0l-4.4-4.4c-0.5-0.5-0.6-1.4-0.2-2
		l0.5,0.5c0.3,0.3,0.6,0.4,1,0.4s0.7-0.1,1-0.4c0.5-0.5,0.5-1.4,0-1.9l-0.5-0.5c0.3-0.2,0.6-0.3,0.9-0.3c0.4,0,0.8,0.2,1.1,0.5
		L-467.1,400.2z M-484.2,383c-0.3-0.3-0.7-0.5-1.1-0.5c-0.4,0-0.8,0.2-1.1,0.5l-1.5,1.5c-0.3,0.3-0.5,0.7-0.5,1.1
		c0,0.4,0.2,0.8,0.5,1.1l4.4,4.4c0.5,0.5,1.4,0.6,2,0.2l-0.5-0.5c-0.5-0.5-0.5-1.4,0-1.9c0.5-0.5,1.4-0.5,1.9,0l0.5,0.5
		c0.4-0.6,0.4-1.5-0.2-2L-484.2,383z M-454.2,393.5L-454.2,393.5c0,12.9-10.4,23.3-23.3,23.3l0,0c-12.9,0-23.3-10.4-23.3-23.3v0
		c0-12.9,10.4-23.3,23.3-23.3l0,0C-464.6,370.2-454.2,380.6-454.2,393.5z M-465.2,398.3l-4.4-4.4c-1.6-1.6-4.1-1.7-5.8-0.2l-2.4-2.4
		c0.7-0.8,1.1-1.8,1.1-2.8c0-1.1-0.4-2.2-1.2-3l-4.4-4.4c-0.8-0.8-1.9-1.2-3-1.2c-1.1,0-2.2,0.4-3,1.2l-1.5,1.5
		c-0.8,0.8-1.2,1.9-1.2,3c0,1.1,0.4,2.2,1.2,3l4.4,4.4c0.8,0.8,1.9,1.2,3,1.2c1,0,2-0.4,2.8-1.1l2.4,2.4c-1.5,1.7-1.4,4.2,0.2,5.8
		l4.4,4.4c0.8,0.8,1.9,1.2,3,1.2c1.1,0,2.2-0.4,3-1.2l1.5-1.5C-463.5,402.7-463.5,400-465.2,398.3z"/>
	<path class="st1" d="M-383.3,370.2L-383.3,370.2c-12.9,0-23.3,10.4-23.3,23.3v0c0,12.9,10.4,23.3,23.3,23.3l0,0
		c12.9,0,23.3-10.4,23.3-23.3v0C-360,380.6-370.4,370.2-383.3,370.2z M-371.5,404.2c0,0.7-0.6,1.3-1.3,1.3h-7.6
		c-0.7,0-1.3-0.6-1.3-1.3s0.6-1.3,1.3-1.3h6.3V390l-9.1-8.3l-9.1,8.3v12.8h4.9V396c0-0.7,0.6-1.3,1.3-1.3h5.7c0.7,0,1.3,0.6,1.3,1.3
		c0,0.7-0.6,1.3-1.3,1.3h-4.4v6.8c0,0.7-0.6,1.3-1.3,1.3h-7.6c-0.7,0-1.3-0.6-1.3-1.3v-14.8c0-0.4,0.2-0.7,0.4-1l10.5-9.5
		c0.5-0.5,1.3-0.5,1.8,0l10.5,9.5c0.3,0.3,0.4,0.6,0.4,1V404.2z"/>
	<path class="st1" d="M-289.3,370.2L-289.3,370.2c-12.9,0-23.3,10.4-23.3,23.3v0c0,12.9,10.4,23.3,23.3,23.3l0,0
		c12.9,0,23.3-10.4,23.3-23.3v0C-266,380.6-276.4,370.2-289.3,370.2z M-281.2,403.4c0,1.3-1.1,2.4-2.4,2.4h-11.3
		c-1.3,0-2.4-1.1-2.4-2.4v-19.9c0-1.3,1.1-2.4,2.4-2.4h11.3c1.3,0,2.4,1.1,2.4,2.4V403.4z M-294.7,403.1h10.7v-19.3h-10.7V403.1z
		 M-290.6,399.4c0-0.1,0-0.2,0.1-0.3c0-0.1,0.1-0.2,0.1-0.2c0-0.1,0.1-0.1,0.2-0.2c0.5-0.5,1.4-0.5,1.9,0c0.1,0.1,0.1,0.1,0.2,0.2
		c0,0.1,0.1,0.2,0.1,0.2c0,0.1,0.1,0.2,0.1,0.3c0,0.1,0,0.2,0,0.3c0,0.1,0,0.2,0,0.3c0,0.1,0,0.2-0.1,0.3c0,0.1-0.1,0.2-0.1,0.2
		c0,0.1-0.1,0.1-0.2,0.2c-0.2,0.2-0.6,0.4-0.9,0.4c-0.4,0-0.7-0.1-1-0.4c-0.1-0.1-0.1-0.1-0.2-0.2c0-0.1-0.1-0.2-0.1-0.2
		c0-0.1-0.1-0.2-0.1-0.3c0-0.1,0-0.2,0-0.3C-290.6,399.6-290.6,399.5-290.6,399.4z"/>
	<path class="st1" d="M-194.3,387.8l9.8,3.2l-1.8,1.8L-194.3,387.8z M-171.2,393.5L-171.2,393.5c0,12.9-10.4,23.3-23.3,23.3h0
		c-12.9,0-23.3-10.4-23.3-23.3v0c0-12.9,10.4-23.3,23.3-23.3h0C-181.6,370.2-171.2,380.6-171.2,393.5z M-180.7,390.1
		c-0.1-0.5-0.4-0.8-0.9-1l-22.1-7.3c0,0,0,0,0,0c-0.1,0-0.2,0-0.3,0c0,0-0.1,0-0.1,0c-0.1,0-0.2,0-0.3,0c0,0,0,0,0,0
		c-0.1,0-0.2,0.1-0.3,0.1c0,0-0.1,0-0.1,0c-0.1,0.1-0.2,0.1-0.2,0.2c0,0,0,0,0,0c0,0,0,0,0,0c-0.1,0.1-0.1,0.1-0.2,0.2c0,0,0,0,0,0
		c0,0,0,0.1,0,0.1c0,0.1-0.1,0.2-0.1,0.2c0,0,0,0.1,0,0.1c0,0.1,0,0.2,0,0.3c0,0,0,0,0,0c0,0.1,0,0.2,0.1,0.3c0,0,0,0,0,0l7.3,22.1
		c0.1,0.4,0.5,0.8,1,0.9c0.1,0,0.2,0,0.3,0c0.4,0,0.7-0.1,1-0.4l5.9-5.9l2,0.8c0.7,0.3,1.5-0.1,1.7-0.7c0.3-0.7-0.1-1.5-0.7-1.7
		l-2.9-1.1c-0.5-0.2-1.1-0.1-1.5,0.3l-5,5l-5.4-16.5l14.8,9.4c0,0,0,0,0,0l0,0c0,0,0,0,0,0c0.1,0.1,0.2,0.1,0.3,0.1c0,0,0.1,0,0.1,0
		c0.1,0,0.2,0,0.3,0c0,0,0,0,0,0c0,0,0,0,0,0c0.1,0,0.2,0,0.3,0c0,0,0.1,0,0.1,0c0.1,0,0.1,0,0.2-0.1c0,0,0.1,0,0.1,0
		c0.1,0,0.1-0.1,0.2-0.1c0,0,0.1,0,0.1-0.1c0,0,0,0,0,0l4.1-4.1C-180.8,391-180.6,390.5-180.7,390.1z"/>
	<path class="st1" d="M-470.4,460l1.1,7.3h-16.4l1.1-7.3c0.4-2.7,2.3-4.8,4.8-5.7c0.5-0.2,0.9-0.6,0.9-1.1c0.1-0.5-0.2-1-0.6-1.3
		c-1.2-0.7-1.9-2-1.9-3.4c0-2.2,1.8-3.9,3.9-3.9c2.2,0,3.9,1.8,3.9,3.9c0,1.4-0.7,2.6-1.9,3.4c-0.5,0.3-0.7,0.8-0.6,1.3
		c0.1,0.5,0.4,1,0.9,1.1C-472.7,455.2-470.8,457.3-470.4,460z M-454.2,456.7L-454.2,456.7c0,12.9-10.4,23.3-23.3,23.3l0,0
		c-12.9,0-23.3-10.4-23.3-23.3v0c0-12.9,10.4-23.3,23.3-23.3l0,0C-464.6,433.4-454.2,443.8-454.2,456.7z M-466.4,468.5l-1.4-8.9
		c-0.4-2.9-2.2-5.4-4.6-6.9c0.9-1.2,1.5-2.6,1.5-4.2c0-3.6-3-6.6-6.6-6.6c-3.6,0-6.6,3-6.6,6.6c0,1.5,0.5,3,1.5,4.2
		c-2.5,1.5-4.2,4-4.6,6.9l-1.4,8.9c-0.1,0.4,0.1,0.8,0.3,1.1c0.3,0.3,0.6,0.5,1,0.5h19.5c0.4,0,0.8-0.2,1-0.5
		C-466.5,469.3-466.4,468.9-466.4,468.5z"/>
	<path class="st1" d="M-383.3,433.4L-383.3,433.4c-12.9,0-23.3,10.4-23.3,23.3v0c0,12.9,10.4,23.3,23.3,23.3l0,0
		c12.9,0,23.3-10.4,23.3-23.3v0C-360,443.8-370.4,433.4-383.3,433.4z M-377.8,463.1c-1.6,2-3.2,4-4.2,6.8c-0.2,0.5-0.7,0.9-1.3,0.9
		c-0.6,0-1-0.3-1.3-0.9c-1.1-2.7-2.7-4.8-4.2-6.8c-2.4-3-4.6-5.9-4.6-10.4c0-5.6,4.5-10.1,10.1-10.1c5.6,0,10.1,4.5,10.1,10.1
		C-373.3,457.2-375.5,460.1-377.8,463.1z M-383.3,445.3c-4.1,0-7.4,3.3-7.4,7.4c0,3.6,1.9,6,4,8.8c1.1,1.4,2.3,3,3.4,4.8
		c1-1.8,2.3-3.4,3.4-4.8c2.2-2.8,4-5.1,4-8.8C-375.9,448.6-379.3,445.3-383.3,445.3z M-380.4,453.3c0,0.2-0.1,0.4-0.2,0.6
		c-0.1,0.2-0.2,0.3-0.3,0.5c-0.1,0.2-0.2,0.3-0.4,0.4c-0.1,0.1-0.3,0.3-0.5,0.4c-0.2,0.1-0.3,0.2-0.5,0.3c-0.2,0.1-0.4,0.1-0.6,0.2
		c-0.2,0-0.4,0.1-0.6,0.1c-0.2,0-0.4,0-0.6-0.1c-0.2,0-0.4-0.1-0.6-0.2c-0.2-0.1-0.3-0.2-0.5-0.3c-0.2-0.1-0.3-0.2-0.5-0.4
		c-0.1-0.1-0.3-0.3-0.4-0.4c-0.1-0.2-0.2-0.3-0.3-0.5c-0.1-0.2-0.1-0.4-0.2-0.6c0-0.2-0.1-0.4-0.1-0.6c0-0.2,0-0.4,0.1-0.6
		c0-0.2,0.1-0.4,0.2-0.6c0.1-0.2,0.2-0.3,0.3-0.5c0.1-0.2,0.2-0.3,0.4-0.5c0.1-0.1,0.3-0.3,0.5-0.4c0.2-0.1,0.3-0.2,0.5-0.3
		c0.2-0.1,0.4-0.1,0.6-0.2c0.4-0.1,0.8-0.1,1.2,0c0.2,0,0.4,0.1,0.6,0.2c0.2,0.1,0.3,0.2,0.5,0.3c0.2,0.1,0.3,0.2,0.5,0.4
		c0.1,0.1,0.3,0.3,0.4,0.5c0.1,0.2,0.2,0.3,0.3,0.5c0.1,0.2,0.1,0.4,0.2,0.6c0,0.2,0.1,0.4,0.1,0.6
		C-380.4,452.9-380.4,453.1-380.4,453.3z"/>
	<path class="st1" d="M-289.3,433.4L-289.3,433.4c-12.9,0-23.3,10.4-23.3,23.3v0c0,12.9,10.4,23.3,23.3,23.3l0,0
		c12.9,0,23.3-10.4,23.3-23.3v0C-266,443.8-276.4,433.4-289.3,433.4z M-275,465.1c0,0.7-0.6,1.3-1.3,1.3h-25.8
		c-0.7,0-1.3-0.6-1.3-1.3v-16.7c0,0,0,0,0,0c0-0.1,0-0.1,0-0.2c0,0,0-0.1,0-0.1c0,0,0-0.1,0-0.1c0,0,0-0.1,0-0.1c0,0,0-0.1,0.1-0.1
		c0,0,0-0.1,0.1-0.1c0,0,0,0,0,0c0,0,0,0,0.1-0.1c0,0,0.1-0.1,0.1-0.1c0,0,0.1-0.1,0.1-0.1c0,0,0.1-0.1,0.1-0.1c0,0,0.1,0,0.1-0.1
		c0,0,0.1,0,0.1-0.1c0,0,0.1,0,0.1,0c0,0,0.1,0,0.1,0c0,0,0.1,0,0.1,0c0,0,0.1,0,0.1,0h25.8c0.7,0,1.3,0.6,1.3,1.3V465.1z
		 M-298.1,449.7h20.4v14.1h-23.1V451l10.8,7.9c0.2,0.2,0.5,0.3,0.8,0.3c0.3,0,0.6-0.1,0.9-0.3l5.5-4.7c0.6-0.5,0.6-1.3,0.2-1.9
		c-0.5-0.6-1.3-0.6-1.9-0.2l-4.7,4L-298.1,449.7z"/>
	<path class="st1" d="M-194.5,443.1l11.6,8.5v14.7h-23.1v-12.8l10.8,7.9c0.2,0.2,0.5,0.3,0.8,0.3c0.3,0,0.6-0.1,0.9-0.3l7.6-6.4
		c0.3-0.3,0.5-0.6,0.5-1v-2.3c0-0.7-0.6-1.3-1.3-1.3h-11.5c-0.7,0-1.3,0.6-1.3,1.3s0.6,1.3,1.3,1.3h10.1v0.4l-6.3,5.3l-10.6-7.7
		L-194.5,443.1z M-171.2,456.7L-171.2,456.7c0,12.9-10.4,23.3-23.3,23.3h0c-12.9,0-23.3-10.4-23.3-23.3v0
		c0-12.9,10.4-23.3,23.3-23.3h0C-181.6,433.4-171.2,443.8-171.2,456.7z M-180.3,450.9c0,0,0-0.1,0-0.1c0,0,0-0.1,0-0.1
		c0-0.1,0-0.1-0.1-0.2c0,0,0,0,0,0c-0.1-0.3-0.3-0.5-0.6-0.7l-12.8-9.4c-0.5-0.3-1.1-0.3-1.6,0l-12.9,9.4c0,0,0,0,0,0
		c0,0-0.1,0-0.1,0.1c0,0,0,0,0,0c0,0,0,0.1-0.1,0.1c0,0,0,0,0,0c0,0,0,0,0,0c0,0,0,0,0,0.1c0,0,0,0.1-0.1,0.1c0,0,0,0.1,0,0.1
		c0,0,0,0,0,0.1c0,0,0,0.1,0,0.1c0,0,0,0.1,0,0.1c0,0,0,0,0,0.1c0,0,0,0.1,0,0.1c0,0,0,0.1,0,0.1c0,0,0,0,0,0v16.7
		c0,0.7,0.6,1.3,1.3,1.3h25.8c0.7,0,1.3-0.6,1.3-1.3V450.9z"/>
	<path class="st2" d="M-368.5,513.7c0.4,0.3,0.6,0.8,0.6,1.3v19.3c0,1-0.8,1.8-1.8,1.8h-10c-1,0-1.8-0.8-1.8-1.8
		c0-1,0.8-1.8,1.8-1.8h8.2v-16.8l-11.9-10.9l-11.9,10.9v16.8h6.4v-8.9c0-1,0.8-1.8,1.8-1.8h7.5c1,0,1.8,0.8,1.8,1.8
		c0,1-0.8,1.8-1.8,1.8h-5.7v8.9c0,1-0.8,1.8-1.8,1.8h-10c-1,0-1.8-0.8-1.8-1.8V515c0-0.5,0.2-1,0.6-1.3l13.7-12.5
		c0.7-0.6,1.7-0.6,2.4,0L-368.5,513.7z"/>
	<path class="st2" d="M-467.1,519.2c-1-1-2.4-1.6-3.9-1.6c-1.4,0-2.6,0.5-3.7,1.4l-3.2-3.2c1.9-2.2,1.8-5.5-0.3-7.6l-5.7-5.7
		c-2.2-2.2-5.7-2.2-7.9,0l-2,2c-2.2,2.2-2.2,5.7,0,7.9l5.7,5.7c1.1,1.1,2.5,1.6,3.9,1.6c1.3,0,2.6-0.5,3.7-1.4l3.2,3.2
		c-0.9,1-1.4,2.3-1.4,3.7c0,1.5,0.6,2.9,1.6,3.9l5.7,5.7c1,1,2.4,1.6,3.9,1.6c1.5,0,2.9-0.6,3.9-1.6l2-2c1.1-1,1.6-2.4,1.6-3.9
		c0-1.5-0.6-2.9-1.6-3.9L-467.1,519.2z M-485.4,515.5l-5.7-5.7c-0.8-0.8-0.8-2.1,0-2.9l2-2c0.4-0.4,0.9-0.6,1.4-0.6s1,0.2,1.4,0.6
		l5.7,5.7c0.7,0.7,0.8,1.8,0.2,2.6l-0.7-0.7c-0.7-0.7-1.8-0.7-2.5,0c-0.7,0.7-0.7,1.8,0,2.5l0.7,0.7
		C-483.6,516.3-484.7,516.2-485.4,515.5z M-463.9,530.3l-2,2c-0.8,0.8-2.1,0.8-2.9,0l-5.7-5.7c-0.4-0.4-0.6-0.9-0.6-1.4
		c0-0.4,0.1-0.8,0.4-1.2l0.7,0.7c0.3,0.3,0.8,0.5,1.2,0.5c0.4,0,0.9-0.2,1.2-0.5c0.7-0.7,0.7-1.8,0-2.5l-0.7-0.7
		c0.3-0.2,0.7-0.4,1.2-0.4c0.5,0,1.1,0.2,1.4,0.6l5.7,5.7c0.4,0.4,0.6,0.9,0.6,1.4C-463.3,529.4-463.5,529.9-463.9,530.3z"/>
	<path class="st2" d="M-210.6,506.5c0,0,0,0.1,0,0.1c0,0.1,0,0.3,0,0.4c0,0,0,0,0,0c0,0.1,0,0.3,0.1,0.4c0,0,0,0,0,0.1l9.5,28.9
		c0.2,0.6,0.7,1,1.3,1.2c0.1,0,0.3,0,0.4,0c0.5,0,0.9-0.2,1.2-0.5l7.7-7.7l2.6,1.1c0.9,0.4,1.9-0.1,2.3-1c0.4-0.9-0.1-1.9-1-2.3
		l-3.7-1.5c-0.7-0.3-1.4-0.1-1.9,0.4l-6.5,6.5l-7.1-21.5l19.3,12.3c0,0,0,0,0,0l0,0c0,0,0,0,0,0c0.1,0.1,0.2,0.1,0.4,0.2
		c0,0,0.1,0,0.1,0c0.1,0,0.3,0.1,0.4,0.1c0,0,0,0,0,0c0,0,0,0,0,0c0.1,0,0.3,0,0.4,0c0,0,0.1,0,0.1,0c0.1,0,0.2-0.1,0.3-0.1
		c0,0,0.1,0,0.1-0.1c0.1,0,0.2-0.1,0.2-0.2c0,0,0.1,0,0.1-0.1c0,0,0,0,0,0l5.4-5.4c0.4-0.4,0.6-1.1,0.5-1.6
		c-0.1-0.6-0.6-1.1-1.2-1.3l-28.9-9.5c0,0,0,0-0.1,0c-0.1,0-0.2-0.1-0.4-0.1c0,0-0.1,0-0.1,0c-0.1,0-0.3,0-0.4,0c0,0,0,0,0,0
		c-0.1,0-0.2,0.1-0.4,0.1c0,0-0.1,0-0.1,0.1c-0.1,0.1-0.2,0.1-0.3,0.2c0,0,0,0,0,0c0,0,0,0,0,0c-0.1,0.1-0.2,0.2-0.2,0.3
		c0,0,0,0,0,0.1c0,0,0,0.1-0.1,0.1C-210.6,506.3-210.6,506.4-210.6,506.5z M-185.7,519.7l-10.4-6.6l12.8,4.2L-185.7,519.7z"/>
	<path class="st2" d="M-464.8,584.3c-0.6-3.8-2.8-7.1-6-9c1.2-1.5,1.9-3.4,1.9-5.4c0-4.7-3.9-8.6-8.6-8.6c-4.7,0-8.6,3.9-8.6,8.6
		c0,2,0.7,3.9,1.9,5.4c-3.2,1.9-5.4,5.2-6,9l-1.8,11.6c-0.1,0.5,0.1,1,0.4,1.4c0.3,0.4,0.8,0.6,1.3,0.6h25.5c0.5,0,1-0.2,1.3-0.6
		c0.3-0.4,0.5-0.9,0.4-1.4L-464.8,584.3z M-488.2,594.4l1.5-9.6c0.5-3.5,2.9-6.3,6.3-7.4c0.7-0.2,1.1-0.8,1.2-1.5
		c0.1-0.7-0.3-1.3-0.8-1.7c-1.6-0.9-2.5-2.6-2.5-4.4c0-2.8,2.3-5.1,5.1-5.1c2.8,0,5.1,2.3,5.1,5.1c0,1.8-0.9,3.4-2.5,4.4
		c-0.6,0.4-0.9,1-0.8,1.7c0.1,0.7,0.5,1.3,1.2,1.5c3.3,1.1,5.7,4,6.3,7.4l1.5,9.6H-488.2z"/>
	<path class="st2" d="M-383.3,561.3c-7.2,0-13.1,5.9-13.1,13.1c0,5.9,2.9,9.6,6,13.6c2,2.6,4.1,5.3,5.5,8.8c0.3,0.7,0.9,1.1,1.6,1.1
		c0.7,0,1.4-0.4,1.6-1.1c1.4-3.5,3.5-6.2,5.5-8.8c3.1-3.9,6-7.7,6-13.6C-370.2,567.2-376.1,561.3-383.3,561.3z M-378.9,585.9
		c-1.4,1.9-3,3.9-4.4,6.3c-1.4-2.4-2.9-4.4-4.4-6.3c-2.8-3.6-5.2-6.7-5.2-11.4c0-5.3,4.3-9.6,9.6-9.6c5.3,0,9.6,4.3,9.6,9.6
		C-373.7,579.1-376.1,582.3-378.9,585.9z M-380.6,571.7c0.7,0.7,1.1,1.7,1.1,2.7c0,0.3,0,0.5-0.1,0.8c0,0.2-0.1,0.5-0.2,0.7
		c-0.1,0.2-0.2,0.5-0.4,0.7c-0.1,0.2-0.3,0.4-0.5,0.6c-0.7,0.7-1.7,1.1-2.7,1.1c-1,0-2-0.4-2.7-1.1c-0.2-0.2-0.3-0.4-0.5-0.6
		c-0.1-0.2-0.3-0.4-0.4-0.7c-0.1-0.2-0.2-0.5-0.2-0.7c0-0.3-0.1-0.5-0.1-0.8c0-1,0.4-2,1.1-2.7c0.2-0.2,0.4-0.3,0.6-0.5
		c0.2-0.1,0.4-0.3,0.7-0.4c0.2-0.1,0.5-0.2,0.7-0.2C-382.8,570.4-381.5,570.8-380.6,571.7z"/>
	<path class="st2" d="M-272.4,566.9h-33.7c0,0-0.1,0-0.1,0c-0.1,0-0.1,0-0.2,0c-0.1,0-0.1,0-0.2,0c-0.1,0-0.1,0-0.2,0
		c-0.1,0-0.1,0-0.2,0.1c0,0-0.1,0-0.1,0.1c-0.1,0-0.1,0.1-0.1,0.1c0,0-0.1,0.1-0.1,0.1c0,0-0.1,0.1-0.1,0.1c0,0-0.1,0.1-0.1,0.1
		c0,0,0,0,0,0c0,0.1-0.1,0.1-0.1,0.2c0,0,0,0.1-0.1,0.1c0,0.1,0,0.1-0.1,0.2c0,0.1,0,0.1-0.1,0.2c0,0,0,0.1,0,0.1c0,0.1,0,0.1,0,0.2
		c0,0,0,0,0,0v21.9c0,1,0.8,1.8,1.8,1.8h33.7c1,0,1.8-0.8,1.8-1.8v-21.9C-270.7,567.7-271.5,566.9-272.4,566.9z M-274.2,588.8h-30.2
		v-16.6l14.1,10.3c0.3,0.2,0.7,0.3,1,0.3c0.4,0,0.8-0.1,1.1-0.4l7.2-6.1c0.7-0.6,0.8-1.7,0.2-2.5c-0.6-0.7-1.7-0.8-2.5-0.2l-6.2,5.2
		l-11.4-8.3h26.6V588.8z"/>
	<path class="st3" d="M27.1,66.6h24.7c2.9,0,5.3-2.4,5.3-5.3V17.7c0-2.9-2.4-5.3-5.3-5.3H27.1c-2.9,0-5.3,2.4-5.3,5.3v43.6
		C21.8,64.2,24.2,66.6,27.1,66.6z M27.7,18.3h23.5v42.4H27.7V18.3z M41.6,51c0.6,0.6,0.9,1.3,0.9,2.1c0,0.8-0.3,1.5-0.9,2.1
		C41,55.7,40.3,56,39.5,56c-0.8,0-1.5-0.3-2.1-0.9c-0.6-0.6-0.9-1.3-0.9-2.1c0-0.8,0.3-1.5,0.9-2.1C38.5,49.9,40.5,49.9,41.6,51z"/>
	<path class="st3" d="M260.9,243c0-0.1,0-0.1,0-0.2c0-0.1-0.1-0.3-0.1-0.4c0,0,0,0,0-0.1c-0.2-0.6-0.6-1.1-1.1-1.4l-25.1-18.4
		c-0.9-0.7-2.2-0.7-3.1,0l-25.3,18.5c0,0-0.1,0.1-0.1,0.1c-0.1,0-0.1,0.1-0.2,0.1c0,0-0.1,0.1-0.1,0.1c0,0.1-0.1,0.1-0.1,0.2
		c0,0-0.1,0.1-0.1,0.1c0,0,0,0,0,0c0,0,0,0.1-0.1,0.1c0,0.1-0.1,0.1-0.1,0.2c0,0.1-0.1,0.1-0.1,0.2c0,0,0,0.1,0,0.1
		c0,0.1,0,0.1-0.1,0.2c0,0.1,0,0.1-0.1,0.2c0,0,0,0.1,0,0.1c0,0.1,0,0.1,0,0.2c0,0.1,0,0.1,0,0.2c0,0,0,0,0,0V276
		c0,1.5,1.2,2.6,2.6,2.6h50.6c1.5,0,2.6-1.2,2.6-2.6v-32.8C260.9,243.1,260.9,243.1,260.9,243z M210.3,273.4v-25l21.1,15.4
		c0.5,0.3,1,0.5,1.6,0.5c0.6,0,1.2-0.2,1.7-0.6l14.9-12.6c0.6-0.5,0.9-1.2,0.9-2v-4.5c0-1.5-1.2-2.6-2.6-2.6h-22.5
		c-1.5,0-2.6,1.2-2.6,2.6c0,1.5,1.2,2.6,2.6,2.6h19.9v0.7l-12.4,10.4l-20.7-15.2L233,228l22.7,16.6v28.8H210.3z"/>
	<g>
		<path class="st1" d="M-469.5,257.6c-1.6-1.6-4.1-1.7-5.8-0.2l-2.4-2.4c0.7-0.8,1.1-1.8,1.1-2.8c0-1.1-0.4-2.2-1.2-3l-4.4-4.4
			c-0.8-0.8-1.9-1.2-3-1.2c-1.1,0-2.2,0.4-3,1.2l-1.5,1.5c-0.8,0.8-1.2,1.9-1.2,3c0,1.1,0.4,2.2,1.2,3l4.4,4.4
			c0.8,0.8,1.9,1.2,3,1.2c1,0,2-0.4,2.8-1.1l2.4,2.4c-1.5,1.7-1.4,4.2,0.2,5.8l4.4,4.4c0.8,0.8,1.9,1.2,3,1.2c1.1,0,2.2-0.4,3-1.2
			l1.5-1.5c1.7-1.7,1.7-4.4,0-6L-469.5,257.6z M-483.6,254.8l-4.4-4.4c-0.3-0.3-0.5-0.7-0.5-1.1c0-0.4,0.2-0.8,0.5-1.1l1.5-1.5
			c0.3-0.3,0.7-0.5,1.1-0.5c0.4,0,0.8,0.2,1.1,0.5l4.4,4.4c0.5,0.5,0.6,1.4,0.2,2l-0.5-0.5c-0.5-0.5-1.4-0.5-1.9,0
			c-0.5,0.5-0.5,1.4,0,1.9l0.5,0.5C-482.2,255.4-483,255.3-483.6,254.8z M-467.1,266.1l-1.5,1.5c-0.6,0.6-1.6,0.6-2.2,0l-4.4-4.4
			c-0.5-0.5-0.6-1.4-0.2-2l0.5,0.5c0.3,0.3,0.6,0.4,1,0.4s0.7-0.1,1-0.4c0.5-0.5,0.5-1.4,0-1.9l-0.5-0.5c0.3-0.2,0.6-0.3,0.9-0.3
			c0.4,0,0.8,0.2,1.1,0.5l4.4,4.4C-466.4,264.5-466.4,265.4-467.1,266.1z"/>
		<path class="st2" d="M-477.5,232.1c-13.8,0-25.1,11.2-25.1,25.1c0,13.8,11.2,25.1,25.1,25.1c13.8,0,25.1-11.2,25.1-25.1
			C-452.4,243.3-463.7,232.1-477.5,232.1z M-477.5,278.7c-11.9,0-21.6-9.7-21.6-21.6c0-11.9,9.7-21.6,21.6-21.6
			c11.9,0,21.6,9.7,21.6,21.6C-455.9,269-465.6,278.7-477.5,278.7z"/>
	</g>
	<g>
		<path class="st1" d="M-382.4,241.9c-0.5-0.5-1.3-0.5-1.8,0l-10.5,9.5c-0.3,0.3-0.4,0.6-0.4,1v14.8c0,0.7,0.6,1.3,1.3,1.3h7.6
			c0.7,0,1.3-0.6,1.3-1.3v-6.8h3v6.8c0,0.7,0.6,1.3,1.3,1.3h7.6c0.7,0,1.3-0.6,1.3-1.3v-14.8c0-0.4-0.2-0.7-0.4-1L-382.4,241.9z"/>
		<path class="st2" d="M-383.3,232.1c-13.8,0-25.1,11.2-25.1,25.1c0,13.8,11.2,25.1,25.1,25.1c13.8,0,25.1-11.2,25.1-25.1
			C-358.3,243.3-369.5,232.1-383.3,232.1z M-383.3,278.7c-11.9,0-21.6-9.7-21.6-21.6c0-11.9,9.7-21.6,21.6-21.6
			c11.9,0,21.6,9.7,21.6,21.6C-361.8,269-371.4,278.7-383.3,278.7z"/>
	</g>
	<g>
		<path class="st2" d="M-289.3,282.2c-13.8,0-25.1-11.2-25.1-25.1c0-13.8,11.2-25.1,25.1-25.1c13.8,0,25.1,11.2,25.1,25.1
			C-264.2,270.9-275.5,282.2-289.3,282.2z M-289.3,235.6c-11.9,0-21.6,9.7-21.6,21.6c0,11.9,9.7,21.6,21.6,21.6
			c11.9,0,21.6-9.7,21.6-21.6C-267.7,245.2-277.4,235.6-289.3,235.6z"/>
		<path class="st1" d="M-283.7,244.8h-11.3c-1.3,0-2.4,1.1-2.4,2.4V267c0,1.3,1.1,2.4,2.4,2.4h11.3c1.3,0,2.4-1.1,2.4-2.4v-19.9
			C-281.2,245.8-282.3,244.8-283.7,244.8z M-288,266.4c0,0.1,0,0.2-0.1,0.3c0,0.1-0.1,0.2-0.1,0.2c0,0.1-0.1,0.1-0.2,0.2
			c-0.2,0.2-0.6,0.4-0.9,0.4c-0.4,0-0.7-0.1-1-0.4c-0.1-0.1-0.1-0.1-0.2-0.2c0-0.1-0.1-0.2-0.1-0.2c0-0.1-0.1-0.2-0.1-0.3
			c0-0.1,0-0.2,0-0.3c0-0.1,0-0.2,0-0.3c0-0.1,0-0.2,0.1-0.3c0-0.1,0.1-0.2,0.1-0.2c0-0.1,0.1-0.1,0.2-0.2c0.5-0.5,1.4-0.5,1.9,0
			c0.1,0.1,0.1,0.1,0.2,0.2c0,0.1,0.1,0.2,0.1,0.2c0,0.1,0.1,0.2,0.1,0.3c0,0.1,0,0.2,0,0.3C-287.9,266.2-288,266.3-288,266.4z"/>
	</g>
	<g>
		<path class="st2" d="M-194.5,282.2c-13.8,0-25.1-11.2-25.1-25.1c0-13.8,11.2-25.1,25.1-25.1c13.8,0,25.1,11.2,25.1,25.1
			C-169.4,270.9-180.7,282.2-194.5,282.2z M-194.5,235.6c-11.9,0-21.6,9.7-21.6,21.6c0,11.9,9.7,21.6,21.6,21.6
			c11.9,0,21.6-9.7,21.6-21.6C-172.9,245.2-182.6,235.6-194.5,235.6z"/>
		<path class="st1" d="M-182,252.7l-22.2-7.3c-0.5-0.2-1,0-1.4,0.3c-0.4,0.4-0.5,0.9-0.3,1.4l7.3,22.2c0.1,0.4,0.5,0.8,1,0.9
			c0.1,0,0.2,0,0.3,0c0,0,0,0,0,0c0,0,0,0,0.1,0c0.1,0,0.2,0,0.2,0c0,0,0.1,0,0.1,0c0.1,0,0.1-0.1,0.2-0.1c0,0,0.1,0,0.1,0
			c0.1-0.1,0.2-0.1,0.2-0.2l4.7-4.7l5,1.8c0.4,0.2,0.9,0.1,1.2-0.1c0,0,0,0,0,0c0.1,0,0.1-0.1,0.2-0.1c0,0,0,0,0,0c0,0,0,0,0,0
			c0-0.1,0.1-0.1,0.1-0.2c0,0,0,0,0,0c0.2-0.4,0.3-0.8,0.1-1.2l-1.8-5l5.2-5.2c0.1-0.1,0.1-0.2,0.2-0.2c0,0,0-0.1,0-0.1
			c0-0.1,0.1-0.1,0.1-0.2c0,0,0-0.1,0-0.1c0-0.1,0-0.2,0-0.2c0,0,0,0,0-0.1c0,0,0,0,0,0c0-0.1,0-0.2,0-0.3
			C-181.3,253.2-181.6,252.8-182,252.7z"/>
	</g>
	<g>
		<path class="st2" d="M-194.5,348.1c-13.8,0-25.1-11.2-25.1-25.1c0-13.8,11.2-25.1,25.1-25.1c13.8,0,25.1,11.2,25.1,25.1
			C-169.4,336.9-180.7,348.1-194.5,348.1z M-194.5,301.5c-11.9,0-21.6,9.7-21.6,21.6c0,11.9,9.7,21.6,21.6,21.6
			c11.9,0,21.6-9.7,21.6-21.6C-172.9,311.2-182.6,301.5-194.5,301.5z"/>
		<path class="st1" d="M-180.9,317.3c0,0,0-0.1,0-0.1c0-0.1,0-0.1,0-0.2c0,0,0,0,0,0c-0.1-0.3-0.3-0.5-0.5-0.7l-12.2-8.9
			c-0.5-0.3-1.1-0.3-1.5,0l-11.4,8.4l12.2,9.1l6-5.1v-0.3h-9.7c-0.7,0-1.3-0.6-1.3-1.3c0-0.7,0.6-1.3,1.3-1.3h11
			c0.7,0,1.3,0.6,1.3,1.3v2.2c0,0.4-0.2,0.7-0.5,1l-7.3,6.1c-0.2,0.2-0.5,0.3-0.8,0.3c-0.3,0-0.5-0.1-0.8-0.2l-12.8-9.6v15.5
			c0,0.7,0.6,1.3,1.3,1.3h24.6c0.7,0,1.3-0.6,1.3-1.3v-16C-180.9,317.4-180.9,317.3-180.9,317.3z"/>
	</g>
	<g>
		<path class="st2" d="M-289.3,348.1c-13.8,0-25.1-11.2-25.1-25.1c0-13.8,11.2-25.1,25.1-25.1c13.8,0,25.1,11.2,25.1,25.1
			C-264.2,336.9-275.5,348.1-289.3,348.1z M-289.3,301.5c-11.9,0-21.6,9.7-21.6,21.6c0,11.9,9.7,21.6,21.6,21.6
			c11.9,0,21.6-9.7,21.6-21.6C-267.7,311.2-277.4,301.5-289.3,301.5z"/>
		<path class="st1" d="M-276.4,313.4h-25.1l12.2,9.1l4.7-4c0.6-0.5,1.4-0.4,1.9,0.2c0.5,0.6,0.4,1.4-0.2,1.9l-5.5,4.7
			c-0.2,0.2-0.6,0.3-0.9,0.3c-0.3,0-0.6-0.1-0.8-0.3l-13.5-10v16.2c0,0.7,0.6,1.3,1.3,1.3h25.8c0.7,0,1.3-0.6,1.3-1.3v-16.7
			C-275,314-275.6,313.4-276.4,313.4z"/>
	</g>
	<g>
		<path class="st2" d="M-383.3,348.1c-13.8,0-25.1-11.2-25.1-25.1c0-13.8,11.2-25.1,25.1-25.1c13.8,0,25.1,11.2,25.1,25.1
			C-358.3,336.9-369.5,348.1-383.3,348.1z M-383.3,301.5c-11.9,0-21.6,9.7-21.6,21.6c0,11.9,9.7,21.6,21.6,21.6
			c11.9,0,21.6-9.7,21.6-21.6C-361.8,311.2-371.4,301.5-383.3,301.5z"/>
		<path class="st1" d="M-383.3,309c-5.6,0-10.1,4.5-10.1,10.1c0,4.5,2.2,7.4,4.6,10.4c1.6,2,3.2,4,4.2,6.8c0.2,0.5,0.7,0.9,1.3,0.9
			c0.6,0,1-0.3,1.3-0.9c1.1-2.7,2.7-4.8,4.2-6.8c2.4-3,4.6-5.9,4.6-10.4C-373.3,313.6-377.8,309-383.3,309z M-380.4,319.7
			c0,0.2-0.1,0.4-0.2,0.6c-0.1,0.2-0.2,0.3-0.3,0.5c-0.1,0.2-0.2,0.3-0.4,0.4c-0.1,0.1-0.3,0.3-0.5,0.4c-0.2,0.1-0.3,0.2-0.5,0.3
			c-0.2,0.1-0.4,0.1-0.6,0.2c-0.2,0-0.4,0.1-0.6,0.1c-0.2,0-0.4,0-0.6-0.1c-0.2,0-0.4-0.1-0.6-0.2c-0.2-0.1-0.3-0.2-0.5-0.3
			c-0.2-0.1-0.3-0.2-0.5-0.4c-0.1-0.1-0.3-0.3-0.4-0.4c-0.1-0.2-0.2-0.3-0.3-0.5c-0.1-0.2-0.1-0.4-0.2-0.6c0-0.2-0.1-0.4-0.1-0.6
			c0-0.2,0-0.4,0.1-0.6c0-0.2,0.1-0.4,0.2-0.6c0.1-0.2,0.2-0.3,0.3-0.5c0.1-0.2,0.2-0.3,0.4-0.5c0.1-0.1,0.3-0.3,0.5-0.4
			c0.2-0.1,0.3-0.2,0.5-0.3c0.2-0.1,0.4-0.1,0.6-0.2c0.4-0.1,0.8-0.1,1.2,0c0.2,0,0.4,0.1,0.6,0.2c0.2,0.1,0.3,0.2,0.5,0.3
			c0.2,0.1,0.3,0.2,0.5,0.4c0.1,0.1,0.3,0.3,0.4,0.5c0.1,0.2,0.2,0.3,0.3,0.5c0.1,0.2,0.1,0.4,0.2,0.6c0,0.2,0.1,0.4,0.1,0.6
			C-380.4,319.3-380.4,319.5-380.4,319.7z"/>
	</g>
	<g>
		<path class="st2" d="M-477.5,348.1c-13.8,0-25.1-11.2-25.1-25.1c0-13.8,11.2-25.1,25.1-25.1c13.8,0,25.1,11.2,25.1,25.1
			C-452.4,336.9-463.7,348.1-477.5,348.1z M-477.5,301.5c-11.9,0-21.6,9.7-21.6,21.6c0,11.9,9.7,21.6,21.6,21.6
			c11.9,0,21.6-9.7,21.6-21.6C-455.9,311.2-465.6,301.5-477.5,301.5z"/>
		<g>
			<g>
				<path class="st1" d="M-467.8,325.3c-0.4-2.9-2.2-5.4-4.6-6.9c0.9-1.2,1.5-2.6,1.5-4.2c0-3.6-3-6.6-6.6-6.6c-3.6,0-6.6,3-6.6,6.6
					c0,1.5,0.5,3,1.5,4.2c-2.5,1.5-4.2,4-4.6,6.9l-1.4,8.9c-0.1,0.4,0.1,0.8,0.3,1.1c0.3,0.3,0.6,0.5,1,0.5h19.5
					c0.4,0,0.8-0.2,1-0.5c0.3-0.3,0.4-0.7,0.3-1.1L-467.8,325.3z"/>
			</g>
		</g>
	</g>
	<path class="st3" d="M-49.5,194.1c0,0.1,0,0.1-0.1,0.2c-0.1,0.2-0.1,0.5-0.1,0.7c0,0,0,0,0,0.1c0,0.2,0.1,0.5,0.1,0.7
		c0,0,0,0.1,0,0.1l16.6,50.5c0.3,1,1.2,1.8,2.2,2c0.2,0.1,0.5,0.1,0.7,0.1c0.8,0,1.6-0.3,2.2-0.9l13.5-13.5l4.6,1.9
		c1.6,0.6,3.4-0.1,4-1.7c0.6-1.6-0.1-3.4-1.7-4l-6.5-2.6c-1.1-0.5-2.4-0.2-3.3,0.7l-11.4,11.4L-41,202.1l33.8,21.4c0,0,0,0,0,0l0,0
		c0,0,0,0,0.1,0c0.2,0.1,0.4,0.2,0.6,0.3c0.1,0,0.1,0,0.2,0.1c0.2,0.1,0.5,0.1,0.7,0.1c0,0,0,0,0,0c0,0,0,0,0,0c0.2,0,0.4,0,0.7-0.1
		c0.1,0,0.1,0,0.2-0.1c0.2,0,0.3-0.1,0.5-0.2c0.1,0,0.1-0.1,0.2-0.1c0.1-0.1,0.3-0.2,0.4-0.3c0.1,0,0.1-0.1,0.2-0.1c0,0,0,0,0.1,0
		l9.4-9.4c0.8-0.8,1.1-1.8,0.8-2.9c-0.2-1-1-1.9-2-2.2L-45.6,192c0,0-0.1,0-0.1,0c-0.2-0.1-0.4-0.1-0.6-0.1c-0.1,0-0.1,0-0.2,0
		c-0.2,0-0.5,0-0.7,0.1c0,0-0.1,0-0.1,0c-0.2,0.1-0.4,0.1-0.6,0.2c-0.1,0-0.1,0.1-0.2,0.1c-0.2,0.1-0.4,0.3-0.6,0.4c0,0,0,0,0,0
		c0,0,0,0,0,0c-0.2,0.2-0.3,0.3-0.4,0.5c0,0,0,0.1,0,0.1c0,0.1-0.1,0.1-0.1,0.2C-49.4,193.7-49.5,193.9-49.5,194.1z M-6,217
		l-18.1-11.5l22.3,7.4L-6,217z"/>
</g>
<g id="DESIGNED_BY_FREEPIK">
	<g>
		<g id="XMLID_1_">
			<g id="XMLID_36_">
				<path id="XMLID_44_" class="st4" d="M-325.9,630.5c-0.4,0.4-0.8,0.9-1.1,1.5l-0.5-0.2c-0.1-0.3-0.3-0.5-0.7-0.5
					c-0.3,0-0.6,0.3-0.5,0.7c0,0.3,0.3,0.6,0.7,0.5c0.1,0,0.1,0,0.2-0.1l0.5,0.2c-0.3,0.6-0.4,1.1-0.5,1.7l0.7,0.1
					c0.2-1.3,0.8-2.5,1.8-3.5L-325.9,630.5z"/>
				<path id="XMLID_43_" class="st4" d="M-320.4,628.2c-0.2,0-0.3,0-0.5,0l-0.1-0.6c0.2-0.1,0.3-0.4,0.3-0.6c0-0.4-0.4-0.7-0.8-0.6
					c-0.4,0-0.7,0.4-0.6,0.8c0,0.3,0.2,0.5,0.4,0.6l0.1,0.6c-0.7,0.1-1.4,0.3-2.1,0.6l0.3,0.7c0.9-0.4,1.9-0.7,3-0.7
					c0.5,0,1,0.1,1.5,0.2l0.2-0.7C-319.3,628.2-319.9,628.2-320.4,628.2z"/>
				<path id="XMLID_42_" class="st4" d="M-313.8,630.7c0.3,0,0.6-0.3,0.5-0.7c0-0.3-0.3-0.6-0.7-0.5c-0.3,0-0.5,0.3-0.5,0.6
					l-0.4,0.4c-0.4-0.4-0.9-0.8-1.4-1.1l-0.4,0.6c1.1,0.7,2,1.7,2.6,2.9l0.7-0.3c-0.3-0.6-0.6-1.1-0.9-1.5l0.4-0.4
					C-313.9,630.7-313.9,630.7-313.8,630.7z"/>
				<path id="XMLID_41_" class="st4" d="M-321,638.4c-0.4,0-0.8,0-1.2,0c-0.9,0-1.7-0.1-2.5-0.2c-0.4-0.1-0.8-0.2-1.3-0.3
					c1,1.9,3.1,3.1,5.4,3.1c2.9,0,5.3-1.9,5.9-4.5c-0.7,0.4-1.5,0.8-2.5,1.1C-318.2,638-319.5,638.3-321,638.4z"/>
				<path id="XMLID_37_" class="st4" d="M-320.4,629.7c-3.4,0-6.1,2.7-6.1,5.9c0,0.4,0,0.8,0.1,1.3c0.7,0.5,2.7,0.9,5.3,0.7
					c2.9-0.2,5.3-1,6.7-2.2c0-0.2,0-0.4,0-0.6C-314.8,631.9-317.3,629.7-320.4,629.7z M-322.6,636.2c-1,0-1.8-0.8-1.8-1.8
					c0-1,0.8-1.8,1.8-1.8c1,0,1.8,0.8,1.8,1.8C-320.7,635.4-321.5,636.2-322.6,636.2z M-317.8,635.3c-0.8,0-1.4-0.6-1.4-1.4
					s0.6-1.4,1.4-1.4c0.8,0,1.4,0.6,1.4,1.4S-317.1,635.3-317.8,635.3z"/>
			</g>
			<path id="XMLID_34_" class="st4" d="M-304.4,631.5c-0.3-0.1-0.8-0.3-1.4-0.2c-0.6,0.1-0.8,0.3-0.8,1v0.9h2.2v1.7h-2.2v5.5h-1.9
				v-5.5h-1.3v-1.7h1.3v-0.9c0-1.7,0.9-2.8,2.6-2.8c0.6,0,1.2,0.1,1.6,0.3L-304.4,631.5z"/>
			<path id="XMLID_7_" class="st4" d="M-299.7,634.9c-0.2,0-0.4,0-0.5,0c-0.9,0-1.5,0.5-1.5,1.6v3.9h-1.9v-7.2h1.9v0.8
				c0.5-0.7,1.1-1,2-1c0.4,0,0.8,0.1,1.1,0.3L-299.7,634.9z"/>
			<path id="XMLID_27_" class="st4" d="M-292,636.8c0,0.2,0,0.5,0,0.7h-5.1c0.2,1,0.9,1.5,1.8,1.5c0.6,0,1.3-0.3,1.8-0.7l1.1,1.2
				c-0.8,0.7-1.9,1.1-3.1,1.1c-2.2,0-3.7-1.5-3.7-3.8c0-2.3,1.5-3.8,3.6-3.8C-293.5,633-292,634.5-292,636.8z M-297.1,636.1h3.2
				c-0.2-0.9-0.7-1.4-1.6-1.4C-296.4,634.7-297,635.2-297.1,636.1z"/>
			<path id="XMLID_16_" class="st4" d="M-284.4,636.8c0,0.2,0,0.5,0,0.7h-5.1c0.2,1,0.9,1.5,1.8,1.5c0.6,0,1.3-0.3,1.8-0.7l1.1,1.2
				c-0.8,0.7-1.9,1.1-3.1,1.1c-2.2,0-3.7-1.5-3.7-3.8c0-2.3,1.5-3.8,3.6-3.8C-285.8,633-284.4,634.5-284.4,636.8z M-289.5,636.1h3.2
				c-0.2-0.9-0.7-1.4-1.6-1.4C-288.8,634.7-289.3,635.2-289.5,636.1z"/>
			<path id="XMLID_12_" class="st4" d="M-276,636.8c0,2.2-1.5,3.8-3.5,3.8c-1,0-1.6-0.4-2.1-0.9v3.7h-1.9v-10.1h1.9v0.8
				c0.5-0.6,1.2-1,2.1-1C-277.5,633-276,634.6-276,636.8z M-281.7,636.8c0,1.1,0.7,2,1.8,2c1.1,0,1.9-0.9,1.9-2c0-1.1-0.7-2-1.9-2
				C-281,634.8-281.7,635.6-281.7,636.8z"/>
			<path id="XMLID_9_" class="st4" d="M-272.9,630.8c0,0.7-0.5,1.2-1.2,1.2c-0.7,0-1.2-0.5-1.2-1.2c0-0.7,0.5-1.2,1.2-1.2
				C-273.5,629.6-272.9,630.1-272.9,630.8z M-273.2,640.4h-1.9v-7.2h1.9V640.4z"/>
			<path id="XMLID_4_" class="st4" d="M-270,635.7l2.7-2.6h2.4l-3.5,3.4l3.5,3.8h-2.4l-2.7-2.9v2.9h-1.9v-10.7h1.9V635.7z"/>
		</g>
		<g>
			<path class="st4" d="M-401.6,640.3v-1.1c-0.5,0.7-1.4,1.2-2.4,1.2c-1.8,0-3.1-1.4-3.1-3.7c0-2.3,1.3-3.7,3.1-3.7
				c1,0,1.8,0.5,2.4,1.2v-3.8h1.1v9.8H-401.6z M-401.6,638.4v-3.2c-0.4-0.6-1.2-1.1-2.1-1.1c-1.4,0-2.3,1.2-2.3,2.7
				c0,1.6,0.8,2.7,2.3,2.7C-402.8,639.5-402,639-401.6,638.4z"/>
			<path class="st4" d="M-399.1,636.7c0-2.1,1.5-3.7,3.5-3.7c2.1,0,3.4,1.7,3.4,3.8v0.3h-5.7c0.1,1.3,1,2.4,2.5,2.4
				c0.8,0,1.6-0.3,2.2-0.9l0.5,0.7c-0.7,0.7-1.7,1.1-2.8,1.1C-397.6,640.5-399.1,639-399.1,636.7z M-395.6,633.9
				c-1.5,0-2.3,1.3-2.3,2.4h4.6C-393.3,635.3-394,633.9-395.6,633.9z"/>
			<path class="st4" d="M-391.4,639.4l0.6-0.8c0.5,0.5,1.4,1,2.3,1c1.1,0,1.7-0.5,1.7-1.2c0-1.7-4.4-0.7-4.4-3.3c0-1.1,1-2,2.6-2
				c1.2,0,2.1,0.5,2.6,1l-0.5,0.8c-0.4-0.5-1.2-0.9-2.1-0.9c-1,0-1.6,0.5-1.6,1.1c0,1.6,4.4,0.5,4.4,3.3c0,1.2-1,2.1-2.8,2.1
				C-389.7,640.5-390.7,640.1-391.4,639.4z"/>
			<path class="st4" d="M-384.5,631.5c0-0.4,0.3-0.7,0.7-0.7c0.4,0,0.7,0.3,0.7,0.7c0,0.4-0.3,0.7-0.7,0.7
				C-384.2,632.2-384.5,631.9-384.5,631.5z M-384.3,640.3v-7.1h1.1v7.1H-384.3z"/>
			<path class="st4" d="M-381.4,642.1l0.6-0.8c0.6,0.7,1.3,1,2.3,1c1.2,0,2.3-0.6,2.3-2.1v-1c-0.5,0.7-1.4,1.3-2.4,1.3
				c-1.8,0-3.1-1.4-3.1-3.7c0-2.3,1.3-3.7,3.1-3.7c1,0,1.8,0.5,2.4,1.2v-1.1h1.1v6.9c0,2.3-1.6,3.1-3.4,3.1
				C-379.8,643.2-380.6,642.9-381.4,642.1z M-376.3,638.3v-3.1c-0.4-0.6-1.2-1.1-2.1-1.1c-1.4,0-2.3,1.1-2.3,2.7
				c0,1.6,0.8,2.7,2.3,2.7C-377.5,639.4-376.7,638.9-376.3,638.3z"/>
			<path class="st4" d="M-368.6,640.3v-4.6c0-1.2-0.6-1.6-1.6-1.6c-0.9,0-1.7,0.5-2.1,1.1v5.2h-1.1v-7.1h1.1v1
				c0.5-0.6,1.5-1.2,2.5-1.2c1.5,0,2.3,0.7,2.3,2.3v5H-368.6z"/>
			<path class="st4" d="M-366.1,636.7c0-2.1,1.5-3.7,3.5-3.7c2.1,0,3.4,1.7,3.4,3.8v0.3h-5.7c0.1,1.3,1,2.4,2.5,2.4
				c0.8,0,1.6-0.3,2.2-0.9l0.5,0.7c-0.7,0.7-1.7,1.1-2.8,1.1C-364.6,640.5-366.1,639-366.1,636.7z M-362.6,633.9
				c-1.5,0-2.3,1.3-2.3,2.4h4.6C-360.3,635.3-361,633.9-362.6,633.9z"/>
			<path class="st4" d="M-352.6,640.3v-1.1c-0.5,0.7-1.4,1.2-2.4,1.2c-1.8,0-3.1-1.4-3.1-3.7c0-2.3,1.3-3.7,3.1-3.7
				c1,0,1.8,0.5,2.4,1.2v-3.8h1.1v9.8H-352.6z M-352.6,638.4v-3.2c-0.4-0.6-1.2-1.1-2.1-1.1c-1.4,0-2.3,1.2-2.3,2.7
				c0,1.6,0.8,2.7,2.3,2.7C-353.9,639.5-353,639-352.6,638.4z"/>
			<path class="st4" d="M-346.3,640.3v-9.8h1.1v3.8c0.6-0.8,1.4-1.2,2.4-1.2c1.8,0,3.1,1.5,3.1,3.7c0,2.3-1.3,3.7-3.1,3.7
				c-1,0-1.9-0.5-2.4-1.2v1.1H-346.3z M-343.1,639.5c1.4,0,2.3-1.2,2.3-2.7c0-1.6-0.8-2.7-2.3-2.7c-0.9,0-1.7,0.5-2.1,1.1v3.2
				C-344.8,639-344,639.5-343.1,639.5z"/>
			<path class="st4" d="M-338.5,642.1c0.2,0.1,0.4,0.1,0.6,0.1c0.5,0,0.8-0.2,1.1-0.7l0.5-1.1l-3-7.1h1.2l2.4,5.8l2.3-5.8h1.2
				l-3.5,8.5c-0.4,1-1.1,1.4-2.1,1.4c-0.2,0-0.6,0-0.8-0.1L-338.5,642.1z"/>
		</g>
	</g>
</g>
</svg>
